<?xml version="1.0" encoding="UTF-8"?>
<svg version="1.1" xmlns="http://www.w3.org/2000/svg" width="1024" height="1024">
<path d="M0 0 C337.92 0 675.84 0 1024 0 C1024 337.92 1024 675.84 1024 1024 C686.08 1024 348.16 1024 0 1024 C0 686.08 0 348.16 0 0 Z " fill="#2C3272" transform="translate(0,0)"/>
<path d="M0 0 C337.92 0 675.84 0 1024 0 C1024 337.92 1024 675.84 1024 1024 C686.08 1024 348.16 1024 0 1024 C0 686.08 0 348.16 0 0 Z M204 128 C204 128.66 204 129.32 204 130 C203.46117187 130.12246094 202.92234375 130.24492187 202.3671875 130.37109375 C191.67987629 133.21046191 182.3836671 138.33040803 173 144 C173 144.66 173 145.32 173 146 C171.98873047 146.29390625 171.98873047 146.29390625 170.95703125 146.59375 C166.85128189 148.54628602 163.95785221 151.38104159 160.6875 154.5 C160.01887939 155.13437988 159.35025879 155.76875977 158.66137695 156.42236328 C151.16535331 163.63453652 145.26832663 171.37656829 139.6875 180.125 C139.26621826 180.78226074 138.84493652 181.43952148 138.41088867 182.11669922 C135.98906975 186.02147356 134.17953712 189.84847523 132.65942383 194.18261719 C131.79146291 196.57473162 130.65041907 198.79484702 129.5 201.0625 C125.14401606 210.6404165 123.90723032 220.67018424 123.42981148 231.06912518 C123.38880654 231.93400662 123.34780161 232.79888807 123.3055541 233.68997804 C122.85341859 244.11032908 122.86120992 254.52833022 122.87301636 264.95649719 C122.87186145 267.20695956 122.87027145 269.45742174 122.86828911 271.70788354 C122.8641468 277.83619864 122.86616321 283.964498 122.86927533 290.09281313 C122.87131584 296.04059413 122.86863386 301.9883726 122.86612797 307.93615301 C122.86088414 320.83709826 122.86130974 333.73803853 122.86420688 346.63898424 C122.86672899 357.9261496 122.86737608 369.21331315 122.86618423 380.50047874 C122.86610785 381.25109973 122.86603146 382.00172071 122.86595276 382.77508779 C122.8656414 385.82255221 122.86532299 388.87001663 122.864993 391.91748105 C122.86193908 420.46093084 122.86469967 449.00437747 122.8700899 477.54782677 C122.87483737 502.88027487 122.87440825 528.21271795 122.86962891 553.54516602 C122.86426966 582.04616202 122.8621533 610.54715524 122.86524117 639.04815167 C122.86556186 642.08830114 122.8658747 645.12845061 122.86618423 648.16860008 C122.86626331 648.91709259 122.86634239 649.6655851 122.86642386 650.4367592 C122.86755919 661.71743102 122.86623512 672.99810082 122.86370468 684.27877235 C122.86084129 697.10722028 122.86156918 709.93566249 122.86698543 722.76410971 C122.86965654 729.30569539 122.87064985 735.84727298 122.86733627 742.3888588 C122.86434626 748.38237263 122.86601105 754.37586687 122.87131383 760.36937895 C122.87242646 762.53188681 122.87187258 764.69439634 122.86943804 766.85690311 C122.55303327 788.70820798 122.55303327 788.70820798 126.203125 810.1328125 C127 813 127 813 127.546875 815.7421875 C128.93710237 822.52424263 131.40560971 828.56346634 134.3125 834.8125 C134.67939941 835.61308838 135.04629883 836.41367676 135.42431641 837.23852539 C137.63560137 841.83889911 140.08431324 845.57471673 143.51635742 849.34936523 C144.96393756 850.95987854 146.26958266 852.61541717 147.5625 854.3515625 C148.16964844 855.16367188 148.16964844 855.16367188 148.7890625 855.9921875 C149.60009692 857.08577584 150.40736346 858.18216809 151.2109375 859.28125 C154.11208574 863.14328811 157.21412347 865.99722944 161 869 C163.38698464 871.33015167 165.7139768 873.69610035 168 876.125 C170.19383505 878.18172036 172.40831075 879.47288566 175 881 C175.97195312 881.61617187 176.94390625 882.23234375 177.9453125 882.8671875 C178.99460938 883.52976562 180.04390625 884.19234375 181.125 884.875 C182.15882813 885.53242187 183.19265625 886.18984375 184.2578125 886.8671875 C192.69945275 891.86193304 201.43298746 894.96744437 210.9375 897.25 C211.93201172 897.50523437 212.92652344 897.76046875 213.95117188 898.0234375 C228.36108988 901.57221834 242.95367664 901.14702608 257.69799805 901.14044189 C260.0179407 901.14302827 262.33788291 901.14604219 264.65782452 901.1494453 C271.01523166 901.15748591 277.37262749 901.15930322 283.73003912 901.16004276 C289.88768617 901.16122395 296.04532847 901.16802893 302.2029722 901.17412117 C318.68513603 901.19014018 335.16729888 901.19607889 351.64946909 901.20086992 C359.44957461 901.20320905 367.24967939 901.20681195 375.04978434 901.2105653 C401.76349977 901.22339449 428.47721479 901.23411632 455.19093323 901.2375679 C456.86604164 901.23778953 458.54115005 901.23801132 460.21625847 901.23823325 C461.89532721 901.23845389 463.57439595 901.23867437 465.2534647 901.2388947 C468.62177595 901.23933725 471.99008719 901.23978436 475.35839844 901.24023438 C476.19353629 901.24034377 477.02867414 901.24045316 477.88911919 901.24056586 C504.98307447 901.24419844 532.07700303 901.26012929 559.17094807 901.28342474 C587.83478728 901.30802486 616.49861121 901.32174073 645.16246128 901.32293582 C648.30912336 901.32310727 651.45578543 901.32332269 654.60244751 901.32357025 C655.377211 901.32362602 656.15197449 901.32368179 656.95021566 901.32373925 C669.41068177 901.32488922 681.87112038 901.3359061 694.33157721 901.35045731 C706.85424938 901.36482842 719.37688635 901.36805572 731.8995645 901.36001733 C738.68176301 901.35595632 745.46386359 901.35705558 752.24605179 901.37107468 C758.4562743 901.38379427 764.66633476 901.38263298 770.87655699 901.37048396 C773.12135139 901.36852369 775.3661572 901.37162063 777.61093557 901.38032833 C792.37435919 901.55761386 792.37435919 901.55761386 806.78235149 898.67384791 C808.92242154 898.02357276 810.77421712 897.77986652 813 897.6875 C817.69574148 897.1871341 821.48641441 894.97612651 825.609375 892.78515625 C827.98448831 891.53466456 830.33164769 890.3646586 832.765625 889.24609375 C847.09156613 882.58323651 860.83545485 873.26586939 871 861 C871 860.34 871 859.68 871 859 C871.66 859 872.32 859 873 859 C874.75848463 856.80486462 876.39106817 854.61327252 878 852.3125 C878.67675781 851.37374023 878.67675781 851.37374023 879.3671875 850.41601562 C881.74450408 847.05752844 883.6755003 843.93587127 885 840 C885.66 840 886.32 840 887 840 C888.25664978 837.09399739 889 835.20395416 889 832 C889.66 832 890.32 832 891 832 C892.31427923 828.46633333 893.59688145 824.92188953 894.875 821.375 C895.23980469 820.3953125 895.60460937 819.415625 895.98046875 818.40625 C901.41200243 803.1979557 901.28874341 788.12607608 901.25396729 772.19125366 C901.25627433 769.88353554 901.25945248 767.57581815 901.26342177 765.26810229 C901.27174525 758.95344401 901.26765557 752.63884645 901.26144934 746.32418799 C901.25639974 740.2046854 901.26272434 734.08518869 901.26774407 727.96568779 C901.27825544 714.68204829 901.27737057 701.39842807 901.27158624 688.11478675 C901.26654769 676.48604418 901.26524518 664.85730866 901.26763153 653.22856522 C901.2677843 652.45607587 901.26793707 651.68358652 901.26809447 650.88768841 C901.26871719 647.75154111 901.269354 644.61539382 901.270014 641.47924654 C901.27612815 612.07545673 901.27059184 582.67167916 901.2598202 553.26789124 C901.2503351 527.17777379 901.25117395 501.08767587 901.26074219 474.99755859 C901.27146724 445.65531605 901.27568883 416.31308433 901.26951766 386.9708401 C901.26887628 383.83866986 901.26825059 380.70649962 901.26763153 377.57432938 C901.26747338 376.80316457 901.26731522 376.03199977 901.26715227 375.23746633 C901.26488328 363.623776 901.26752687 352.01009351 901.27259064 340.39640427 C901.27832542 327.17818109 901.27684523 313.95998013 901.26602915 300.7417597 C901.26069606 294.00313398 901.25868495 287.26455268 901.26532745 280.52592468 C901.27132659 274.34623026 901.2679469 268.16661164 901.25737235 261.98692401 C901.25515496 259.76223765 901.25623679 257.53754477 901.26112393 255.31286268 C901.28862235 241.74464934 900.62831645 228.47399778 899 215 C898.34 215 897.68 215 897 215 C896.9175 213.9275 896.835 212.855 896.75 211.75 C893.6364758 188.27566622 876.42679146 164.19430715 858 150 C857.34 150 856.68 150 856 150 C856 149.34 856 148.68 856 148 C852.77885843 145.68407978 852.77885843 145.68407978 849 145 C849 144.34 849 143.68 849 143 C847.00572995 141.53353676 845.0423352 140.22622166 842.9375 138.9375 C842.37611328 138.57333984 841.81472656 138.20917969 841.23632812 137.83398438 C837.05226654 135.24703887 833.7952471 134.39705868 829 134 C829 133.34 829 132.68 829 132 C823.03498005 129.24465909 817.00300106 127.37099487 810.625 125.875 C809.95476807 125.71676758 809.28453613 125.55853516 808.59399414 125.39550781 C806.40174248 124.89855924 804.20220229 124.45082532 802 124 C801.2475087 123.82884499 800.49501741 123.65768998 799.71972334 123.48134845 C789.09780009 121.34957268 778.3682593 121.71261405 767.58602905 121.72584534 C765.29668682 121.72138904 763.00734613 121.71607371 760.71800768 121.70997661 C754.44462729 121.69583269 748.17129654 121.69413264 741.89790249 121.69457352 C735.82081341 121.69309184 729.74374683 121.68227517 723.66666767 121.67188222 C708.93605488 121.64718948 694.20545342 121.63836423 679.47482278 121.63334573 C678.71257763 121.63308456 677.95033248 121.63282338 677.16498899 121.63255429 C676.01920644 121.63216388 676.01920644 121.63216388 674.85027677 121.63176558 C666.36968172 121.62867817 657.88908976 121.62217147 649.40849686 121.6155529 C623.76906424 121.59590758 598.12963495 121.57950259 572.49019432 121.57667637 C571.67068903 121.57658231 570.85118374 121.57648825 570.00684495 121.57639134 C566.68604751 121.57601287 563.36525006 121.57564888 560.04445262 121.57528836 C557.54526008 121.57501664 555.04606754 121.57473996 552.546875 121.57446289 C551.30812549 121.57433086 551.30812549 121.57433086 550.04435073 121.57419616 C524.12230699 121.57129361 498.20033796 121.54922174 472.27832031 121.51293945 C443.12207757 121.47213089 413.96588572 121.44851718 384.80961287 121.44821686 C381.69471653 121.44812004 378.5798202 121.44795333 375.46492386 121.44773674 C374.69802004 121.44769263 373.93111623 121.44764851 373.1409729 121.44760306 C360.84690141 121.44648735 348.55290528 121.42913889 336.25885798 121.40591742 C323.8793108 121.38297004 311.49986443 121.37891674 299.12030374 121.39346672 C292.42541736 121.40085534 285.7308211 121.39990507 279.0359478 121.37705612 C272.8890419 121.35627979 266.74259051 121.35923885 260.59568854 121.37993097 C258.38967381 121.38339052 256.18362502 121.37866902 253.97765486 121.36422653 C237.17791644 121.26146086 220.05087691 122.6497077 204 128 Z " fill="#FDFEFE" transform="translate(0,0)"/>
<path d="M0 0 C7.85733334 1.30955556 12.15745534 4.8659123 17.4375 10.6875 C21.50957467 16.71417051 21.74924391 21.79844387 21 29 C18.54444444 37.45555556 18.54444444 37.45555556 16 40 C15.90031328 42.10221693 15.87031797 44.20792604 15.875 46.3125 C15.87242187 47.46363281 15.86984375 48.61476563 15.8671875 49.80078125 C16.00621921 53.49626856 16.00621921 53.49626856 17 57 C21.32421282 59.05914896 25.26036497 59.50781804 30 59 C33.70390021 56.97333762 35.65363011 55.51955484 38 52 C38.45601261 49.49103314 38.45601261 49.49103314 38.625 46.8125 C38.69976562 45.91144531 38.77453125 45.01039063 38.8515625 44.08203125 C38.90054688 43.39496094 38.94953125 42.70789063 39 42 C38.34 42 37.68 42 37 42 C36.505 38.04 36.505 38.04 36 34 C35.34 34 34.68 34 34 34 C33.38167939 25.96183206 33.38167939 25.96183206 35.6875 22.375 C38 21 38 21 40.4375 20.9375 C45.05044089 22.85018281 47.38418195 25.83678812 49.6875 30.1875 C51.4081921 34.65356602 52.15198778 39.30766569 53 44 C53.1753125 44.7940625 53.350625 45.588125 53.53125 46.40625 C58.94131677 70.91067008 58.22922288 98.5737097 49 122 C48.69578125 122.80566406 48.3915625 123.61132812 48.078125 124.44140625 C46.3299696 128.91899296 44.41194978 133.26792315 42.3215332 137.59375 C37.10902253 148.43555709 33.01110442 160.57878075 36.84765625 172.671875 C40.18397834 179.41237657 44.65542411 184.04960369 51 188 C58.79319169 190.59773056 68.31727562 189.91221709 75.74609375 186.4609375 C81.07697495 183.00556563 86.47913555 177.26637021 88.58984375 171.171875 C90.96654881 158.58665583 87.80686501 148.45219983 83 137 C82.64421875 136.14792969 82.2884375 135.29585937 81.921875 134.41796875 C80.53553672 131.2517131 79.06404737 128.13279388 77.5625 125.01953125 C70.07772713 108.75886219 68.29097711 92.34789174 68.36865234 74.5847168 C68.37498974 71.56738485 68.32777562 68.55396332 68.27734375 65.53710938 C68.2114561 55.64418937 68.87704664 46.49513616 71.6640625 36.96484375 C71.89701019 36.1604335 72.12995789 35.35602325 72.3699646 34.52723694 C74.16473693 29.05646299 76.80349612 24.96473603 81 21 C84.48677758 19.25661121 88.23567556 19.48629108 91.9453125 20.56640625 C95.40620153 21.94931379 96.89746253 22.8461938 99 26 C100.18706213 32.80998799 98.59901521 37.80226722 95.19140625 43.67578125 C93.93354804 46.12963579 93.41785336 48.28635458 93 51 C92.34 51 91.68 51 91 51 C91 54.3 91 57.6 91 61 C91.66 61 92.32 61 93 61 C94.01866229 62.65532623 95.01810813 64.32260138 96 66 C96.66 66.33 97.32 66.66 98 67 C98 67.66 98 68.32 98 69 C99.91731918 68.88544319 101.8338675 68.75793742 103.75 68.625 C105.35101563 68.52058594 105.35101563 68.52058594 106.984375 68.4140625 C110.90293612 67.87602172 112.97076807 67.06431938 115.71875 64.22265625 C118.25589888 59.82132177 117.65430662 54.89845769 117 50 C115.9325469 46.97363656 114.67601295 44.21732394 113.19140625 41.375 C109.17215989 33.362863 110.29322428 23.51356197 112.5625 15.125 C114.74609489 8.69854813 117.94032907 4.35491153 123.8318882 0.93736839 C126.23000903 -0.09944284 127.86893218 -0.25612162 130.47103882 -0.26742554 C131.36188675 -0.27595551 132.25273468 -0.28448547 133.170578 -0.29327393 C134.14086441 -0.29236755 135.11115082 -0.29146118 136.11083984 -0.29052734 C137.65341713 -0.30060318 137.65341713 -0.30060318 139.22715759 -0.31088257 C142.6384665 -0.32992323 146.04957868 -0.33379206 149.4609375 -0.3359375 C151.84632446 -0.34236912 154.23171063 -0.34909775 156.61709595 -0.35610962 C161.63244447 -0.36810311 166.64772408 -0.3717891 171.66308594 -0.37060547 C178.03052875 -0.37040397 184.39751669 -0.39752023 190.76485252 -0.43214989 C195.7034601 -0.4546243 200.64196257 -0.45843653 205.580616 -0.45738602 C207.92370776 -0.45971838 210.26680351 -0.46840529 212.60984421 -0.48405075 C226.96529722 -0.57080577 240.41817188 0.4394889 254.46257401 3.47301865 C258.14008088 4.23677592 261.83942868 4.86568639 265.54195213 5.4954319 C268.53190628 6.1091854 271.25249011 7.07488652 274.07421875 8.21923828 C276.10196689 9.04134002 278.14746606 9.76005815 280.21875 10.46484375 C280.92386719 10.70783203 281.62898438 10.95082031 282.35546875 11.20117188 C283.78396075 11.69164681 285.21365483 12.17863474 286.64453125 12.66210938 C291.65527582 14.39800717 296.30408991 16.54560267 301 19 C302.33222422 19.66888029 303.66526851 20.336137 305 21 C305 21.66 305 22.32 305 23 C305.94875 23.268125 306.8975 23.53625 307.875 23.8125 C311 25 311 25 313 28 C314.65848177 29.01351664 316.32665961 30.01120795 318 31 C337.12624872 46.14161357 349.15412496 66.66936712 353.32421875 90.58984375 C353.91110097 93.96149269 353.91110097 93.96149269 355.01953125 96.94140625 C357.29861797 104.05106721 357.19249406 111.41567379 357.1875 118.8125 C357.18814453 119.80773682 357.18878906 120.80297363 357.18945312 121.82836914 C357.12313539 131.30502228 356.22703469 140.61099352 355 150 C354.34 150 353.68 150 353 150 C353.03996094 150.87785156 353.07992188 151.75570312 353.12109375 152.66015625 C352.57740491 167.65544529 339.10381891 184.51155998 328.65185547 194.51855469 C320.59618775 201.74317658 310.27180434 209.57606522 300 213 C300 213.66 300 214.32 300 215 C300.51175781 215.09796875 301.02351563 215.1959375 301.55078125 215.296875 C304.92451442 216.26541084 308.02414292 217.75225209 311.1875 219.25 C311.8587793 219.56718994 312.53005859 219.88437988 313.22167969 220.21118164 C325.22354803 225.92987216 335.70482709 232.85769326 345.625 241.75 C346.14618408 242.20971191 346.66736816 242.66942383 347.2043457 243.14306641 C349.92876759 245.6464907 351.38718088 247.33942712 352 251 C353.9837767 252.28436734 353.9837767 252.28436734 356 253 C356 253.99 356 254.98 356 256 C356.66 256 357.32 256 358 256 C360.47840453 258.78820509 361.62868295 261.57170737 363 265 C363.81859961 266.50809122 364.65345879 268.00741418 365.5 269.5 C374.31369093 285.18888679 374.37376234 303.70131714 374.37060547 321.27246094 C374.37499577 323.99737348 374.41152624 326.72068223 374.44921875 329.4453125 C374.5758725 349.24518011 369.45477458 367.53884185 360 385 C359.34 385 358.68 385 358 385 C357.66355469 386.02673828 357.66355469 386.02673828 357.3203125 387.07421875 C355.65035139 390.77481305 353.40553323 393.65937526 350.875 396.8125 C350.3785498 397.43342529 349.88209961 398.05435059 349.37060547 398.6940918 C341.99768216 407.80959779 333.99998638 414.88102817 324 421 C323.34 421 322.68 421 322 421 C322 421.66 322 422.32 322 423 C321.01 423 320.02 423 319 423 C318.67 423.99 318.34 424.98 318 426 C316.3125 426.921875 316.3125 426.921875 314 427.75 C308.29445412 429.87721219 302.68335144 432.18931861 297.06640625 434.53808594 C290.84668935 437.11622182 284.82709112 439.13053419 278.1875 440.375 C274.06153829 441.15439396 269.97235766 441.97915181 265.91015625 443.046875 C258.7386274 444.92906363 251.83913362 446.29587512 244.41899109 446.61009216 C243.60536376 446.64829872 242.79173643 446.68650527 241.95345372 446.7258696 C231.48808628 447.1700172 221.01875757 447.13189721 210.54614258 447.11352539 C208.25765484 447.1132426 205.96916701 447.11340304 203.68067932 447.1139679 C197.52909997 447.11425229 191.37754051 447.10841394 185.22596574 447.10139394 C178.77448012 447.09510031 172.32299395 447.09455188 165.87150574 447.09336853 C155.06285216 447.09062351 144.25420666 447.08439707 133.44555664 447.07543945 C122.32283565 447.06623126 111.20011662 447.05916718 100.07739258 447.05493164 C99.38940135 447.05466892 98.70141012 447.05440619 97.99257068 447.05413551 C94.54040821 447.05283028 91.08824573 447.05156661 87.63608325 447.05032361 C59.0907173 447.03999178 30.54535894 447.02233406 2 447 C2 446.34 2 445.68 2 445 C1.34 445 0.68 445 0 445 C0 298.15 0 151.3 0 0 Z " fill="#FCFCFD" transform="translate(334,289)"/>
<path d="M0 0 C0.99491959 -0.00571014 1.98983917 -0.01142029 3.01490784 -0.01730347 C4.11604416 -0.01842133 5.21718048 -0.01953918 6.35168457 -0.02069092 C8.0812162 -0.02813828 8.0812162 -0.02813828 9.84568787 -0.03573608 C13.68688545 -0.05041921 17.52804157 -0.05717426 21.3692627 -0.06268311 C23.36490621 -0.06698111 25.36054972 -0.07127964 27.35619307 -0.07565761 C32.93102715 -0.08749035 38.50585121 -0.09501174 44.08069658 -0.09845281 C51.25560457 -0.10290655 58.43031946 -0.12031789 65.60516882 -0.1494534 C71.1663467 -0.17123844 76.72747104 -0.18116634 82.28869104 -0.18249393 C85.60086606 -0.18353223 88.91282148 -0.1907195 92.22496033 -0.20731354 C107.79330025 -0.27966364 122.26990904 0.23281548 137.4005127 4.14044189 C137.4005127 4.80044189 137.4005127 5.46044189 137.4005127 6.14044189 C138.1842627 6.18169189 138.9680127 6.22294189 139.7755127 6.26544189 C150.12314015 8.76314507 158.93926883 16.59208094 164.4864502 25.48419189 C171.97425409 39.21550827 174.1471174 56.25854351 170.4786377 71.51934814 C166.89060887 83.57044495 160.32713499 93.52826502 149.4005127 100.14044189 C145.15314761 102.10158412 140.84697861 103.69298588 136.4005127 105.14044189 C135.6931321 105.39003536 134.9857515 105.63962883 134.25693512 105.89678574 C127.84556527 108.02995395 122.14392187 108.54815207 115.41809082 108.46173096 C114.36955429 108.46067856 113.32101776 108.45962616 112.2407074 108.45854187 C109.98128918 108.45495518 107.72187358 108.44486821 105.46250916 108.42887115 C101.87985238 108.40573162 98.29780909 108.40476939 94.71508789 108.41015625 C84.53503989 108.42278486 74.35532221 108.40581182 64.17541504 108.34991455 C57.93261495 108.31719323 51.69057284 108.3185354 45.44773865 108.34093475 C43.07797122 108.34267783 40.70815605 108.3314862 38.33851624 108.30683136 C35.01913426 108.27310423 31.70237732 108.2827165 28.38293457 108.30157471 C27.41536728 108.28104538 26.44779999 108.26051605 25.45091248 108.23936462 C17.67923251 108.35555615 13.33539429 111.35289428 7.4005127 116.14044189 C6.11976755 117.02946249 4.83127672 117.90763534 3.52941895 118.76544189 C2.64625 119.35506714 2.64625 119.35506714 1.74523926 119.956604 C1.15710449 120.34727051 0.56896973 120.73793701 -0.0369873 121.14044189 C-0.67023926 121.56269043 -1.30349121 121.98493896 -1.95593262 122.41998291 C-6.7261097 125.58987744 -11.55240491 128.66140775 -16.4276123 131.66778564 C-18.57205196 133.01371573 -18.57205196 133.01371573 -19.99401855 134.58184814 C-22.37442283 136.89275156 -25.20134269 138.45489672 -28.0369873 140.14044189 C-32.57199015 142.84664483 -32.57199015 142.84664483 -36.88464355 145.89044189 C-38.5994873 147.14044189 -38.5994873 147.14044189 -40.5994873 147.14044189 C-40.9294873 148.13044189 -41.2594873 149.12044189 -41.5994873 150.14044189 C-43.24904494 150.84838387 -44.91976062 151.50740124 -46.5994873 152.14044189 C-48.50518398 153.36412184 -50.37575042 154.64319967 -52.22058105 155.95684814 C-53.37467837 156.77048744 -54.52950938 157.5830867 -55.68493652 158.39483643 C-56.31035339 158.83531311 -56.93577026 159.27578979 -57.58013916 159.72961426 C-61.30187752 162.3298253 -65.06319504 164.87180059 -68.82214355 167.41778564 C-70.02307144 168.2312999 -70.02307144 168.2312999 -71.2482605 169.06124878 C-72.88809917 170.17145646 -74.5282074 171.28126608 -76.1685791 172.39068604 C-78.69068508 174.09736129 -81.21050015 175.80738611 -83.73034668 177.51739502 C-85.34413927 178.60939837 -86.95806654 179.70120274 -88.57214355 180.79278564 C-89.32004654 181.30107407 -90.06794952 181.80936249 -90.83851624 182.33305359 C-91.53702194 182.8043721 -92.23552765 183.27569061 -92.9552002 183.7612915 C-93.56440811 184.17382675 -94.17361603 184.586362 -94.80128479 185.01139832 C-96.68027782 186.19116811 -98.60061674 187.18027152 -100.5994873 188.14044189 C-100.0409966 184.47421877 -98.7800172 183.07002088 -95.95532227 180.73440552 C-95.17285 180.07665257 -94.39037773 179.41889961 -93.58419418 178.74121475 C-92.28755529 177.67015299 -92.28755529 177.67015299 -90.96472168 176.57745361 C-89.08552242 174.98988474 -87.20866125 173.39954532 -85.33380127 171.80685425 C-83.83332874 170.53348646 -83.83332874 170.53348646 -82.30254364 169.23439407 C-72.3525665 160.74067533 -62.6941702 151.90638315 -53.0994873 143.01544189 C-52.27134742 142.24866906 -52.27134742 142.24866906 -51.42647743 141.46640587 C-13.83691545 106.6254808 -13.83691545 106.6254808 0.15759277 58.66763306 C0.62089857 41.09509234 -1.2676207 23.1605717 -4.75357819 5.94267082 C-5.07243351 4.34886523 -5.34172441 2.74526066 -5.5994873 1.14044189 C-3.98493586 -0.47410955 -2.23337869 0.00764247 0 0 Z " fill="#2E3373" transform="translate(437.5994873046875,545.8595581054688)"/>
<path d="M0 0 C27.9291009 -0.08021762 27.9291009 -0.08021762 39.88867188 -0.09765625 C48.03021902 -0.10958421 56.17172128 -0.12334949 64.31323242 -0.15087891 C70.88143548 -0.17307765 77.44960825 -0.18458902 84.01784706 -0.18975449 C86.51629716 -0.19343289 89.01474478 -0.20061564 91.51317406 -0.21146011 C107.33203913 -0.27735444 121.87000142 -0.12302435 137 5 C137 5.66 137 6.32 137 7 C137.99 7.2784375 137.99 7.2784375 139 7.5625 C148.99949238 12.35392343 154.86018802 20.99646427 158.984375 30.90234375 C163.97754951 46.131526 161.79344111 64.84148956 154.75 79 C147.89895222 90.1120653 135.24939769 95.93765058 123 99 C116.18114004 100.06334527 109.40028491 100.13748003 102.51342773 100.11352539 C101.40020645 100.11367142 100.28698517 100.11381744 99.14002991 100.1139679 C95.48786418 100.11327539 91.83575048 100.10551416 88.18359375 100.09765625 C85.64054899 100.09578972 83.09750387 100.09436692 80.55445862 100.09336853 C74.56236638 100.08995024 68.57029622 100.0820817 62.5782128 100.07201904 C55.08014021 100.05970319 47.58206457 100.05426194 40.08398438 100.04882812 C26.72264191 100.03911515 13.36133965 100.01907854 0 100 C0 67 0 34 0 0 Z " fill="#2F3474" transform="translate(432,370)"/>
<path d="M0 0 C2 1 2 1 3.10944444 3.47299474 C4.22145259 7.87705303 4.2745007 11.90920406 4.24888897 16.43208408 C4.25149625 17.37891328 4.25410354 18.32574249 4.25678983 19.30126348 C4.26310538 22.48619299 4.25511687 25.67092648 4.24723816 28.85585022 C4.2488259 31.15752769 4.25128915 33.4592047 4.25455457 35.76088041 C4.26098068 42.09572869 4.25489006 48.43051327 4.24679029 54.76535738 C4.23991946 60.89278054 4.24438291 67.02020088 4.2476195 73.14762532 C4.25389731 85.68560813 4.25071963 98.22357213 4.24202538 110.76155281 C4.23341229 123.18530514 4.22850518 135.60904903 4.22869301 148.03280449 C4.22870065 148.80547328 4.2287083 149.57814207 4.22871618 150.37422507 C4.22875709 153.51075461 4.2288227 156.64728416 4.22892199 159.7838137 C4.22982844 189.21953832 4.21987881 218.65525007 4.20449232 248.09097022 C4.19087756 274.23341887 4.18463064 300.37585838 4.18530273 326.51831055 C4.18534315 328.19589029 4.18538351 329.87347003 4.18542381 331.55104978 C4.18544416 332.38041763 4.18546452 333.20978548 4.18548548 334.0642857 C4.18558628 338.23936268 4.18567686 342.41443966 4.18575573 346.58951664 C4.18577244 347.41322228 4.18578916 348.23692793 4.18580638 349.08559435 C4.18617183 370.93421348 4.18162968 392.78283147 4.17542917 414.63144964 C4.17520889 415.40903773 4.17498862 416.18662582 4.17476168 416.98777718 C4.17387346 420.1145643 4.17298504 423.24135142 4.17207072 426.36813854 C4.16891399 437.23624322 4.16740187 448.104347 4.16695923 458.97245211 C4.16636132 472.98512985 4.16235129 486.99780005 4.15252777 501.01047457 C4.14787296 507.7663934 4.14486204 514.5223024 4.14612198 521.27822304 C4.14721996 527.46586953 4.14368062 533.65349559 4.13647345 539.84113782 C4.13466576 542.07670588 4.13452432 544.31227605 4.13624074 546.54784418 C4.14365621 557.41125938 4.13264338 568.18346264 3 579 C2.67 579 2.34 579 2 579 C2.00037972 578.1550129 2.00075944 577.31002581 2.00115067 576.43943304 C2.02386701 525.58458229 2.04085241 474.72973211 2.05106533 423.87487724 C2.05231502 417.67512974 2.05360944 411.47538225 2.05493164 405.27563477 C2.05519395 404.04213388 2.05545626 402.80863299 2.05572652 401.53775329 C2.05947364 384.35014486 2.06560934 367.1625388 2.0737354 349.97493191 C2.17065279 211.9689407 2.17065279 211.9689407 1.59018397 73.96458554 C1.56907241 70.89872649 1.54857382 67.83286441 1.52869725 64.7669971 C1.47378097 56.30057737 1.41390634 47.83422855 1.344661 39.36791301 C1.32472329 36.88168669 1.30612012 34.39544922 1.28900599 31.90920186 C1.26530434 28.55998129 1.23570524 25.21086589 1.20433044 21.86170959 C1.19867335 20.91141371 1.19301625 19.96111782 1.18718773 18.98202509 C1.11838886 12.61366848 0.66191197 6.33356379 0 0 Z " fill="#252A67" transform="translate(896,218)"/>
<path d="M0 0 C1.37652616 3.77168167 0.60432755 6.48952871 -0.375 10.3125 C-2.35323756 18.12376515 -3.14811071 25.47325276 -3.1386652 33.49774075 C-3.14292853 34.91036208 -3.14292853 34.91036208 -3.14727798 36.35152122 C-3.15561203 39.5129564 -3.15689219 42.67435486 -3.15821838 45.83580017 C-3.16278461 48.12285704 -3.16778472 50.40991308 -3.17318195 52.69696814 C-3.18676555 58.98622117 -3.19418208 65.2754688 -3.20060861 71.56473267 C-3.20778985 77.64900016 -3.21961189 83.733257 -3.23132664 89.81751714 C-3.25512861 102.26282512 -3.27433639 114.70813622 -3.29092598 127.15345573 C-3.30736679 139.47590502 -3.32584947 151.79834845 -3.34705925 164.12079048 C-3.34837686 164.88695907 -3.34969446 165.65312767 -3.351052 166.44251349 C-3.35775408 170.33349566 -3.36449265 174.22447778 -3.37124526 178.11545987 C-3.41900849 205.67535624 -3.46219347 233.23525808 -3.50268555 260.79516602 C-3.54203355 287.5692586 -3.58345563 314.34334666 -3.62768555 341.11743164 C-3.62904808 341.94272388 -3.63041061 342.76801611 -3.63181442 343.6183172 C-3.6454998 351.90624009 -3.65922734 360.1941629 -3.67298577 368.48208566 C-3.70101232 385.36554389 -3.72875745 402.24900258 -3.7563324 419.13246155 C-3.7576006 419.90873589 -3.7588688 420.68501024 -3.76017542 421.48480805 C-3.84483151 473.32319803 -3.92290667 525.16159829 -4 577 C-4.33 577 -4.66 577 -5 577 C-5.16392951 524.23265431 -5.32300051 471.46529598 -5.4553833 418.69786072 C-5.45734527 417.91639361 -5.45930723 417.13492651 -5.46132865 416.32977859 C-5.50394147 399.34477736 -5.5456553 382.35977403 -5.58644359 365.37476832 C-5.60645277 357.0448484 -5.62666052 348.71492896 -5.64697266 340.38500977 C-5.64899054 339.55610013 -5.65100841 338.7271905 -5.65308744 337.87316239 C-5.71853915 311.02494446 -5.79709304 284.17678438 -5.88247023 257.32862304 C-5.97016595 229.72953785 -6.04458591 202.13044775 -6.10239606 174.53128301 C-6.11057491 170.62955804 -6.11890491 166.72783339 -6.12732697 162.82610893 C-6.12897981 162.05822346 -6.13063265 161.29033798 -6.13233558 160.49918325 C-6.15928757 148.15802859 -6.20015796 135.81695773 -6.24628548 123.47586148 C-6.29240488 111.05696212 -6.32373672 98.63809419 -6.3401753 86.2191195 C-6.3494807 79.49506404 -6.36571022 72.77121365 -6.39944649 66.04722214 C-6.43022506 59.88374773 -6.44216991 53.72052608 -6.43952778 47.55697804 C-6.44182958 45.33459914 -6.45087227 43.11221407 -6.4675779 40.88989676 C-6.67606779 11.85949874 -6.67606779 11.85949874 0 0 Z " fill="#252E69" transform="translate(130,205)"/>
<path d="M0 0 C0.33 0 0.66 0 1 0 C1.04898437 1.09699219 1.09796875 2.19398438 1.1484375 3.32421875 C1.22350591 4.77866925 1.29905197 6.23309516 1.375 7.6875 C1.4059375 8.40873047 1.436875 9.12996094 1.46875 9.87304688 C1.87235266 17.23879546 3.64436468 20.78530245 9 26 C9 26.66 9 27.32 9 28 C9.804375 28.226875 10.60875 28.45375 11.4375 28.6875 C12.283125 29.120625 13.12875 29.55375 14 30 C14.8125 32.625 14.8125 32.625 15 35 C12.13391871 36.43304064 10.18699217 36.30644155 7 36 C1.50292962 33.08318714 -2.99950349 29.00148954 -5 23 C-5.87952708 14.04138847 -4.82135738 7.62807614 0 0 Z " fill="#ECEBF2" transform="translate(381,437)"/>
<path d="M0 0 C0.66 0.33 1.32 0.66 2 1 C1.34 1.66 0.68 2.32 0 3 C69.63 3.33 139.26 3.66 211 4 C211 4.33 211 4.66 211 5 C139.72 5.33 68.44 5.66 -5 6 C-3.86695008 2.60085025 -2.87481525 1.94745549 0 0 Z " fill="#E3E5EB" transform="translate(342,730)"/>
<path d="M0 0 C0 0.66 0 1.32 0 2 C-2.80628456 2.93542819 -4.48529632 3.12368604 -7.38493347 3.12025452 C-8.72896996 3.12231651 -8.72896996 3.12231651 -10.10015869 3.12442017 C-11.08055115 3.12082489 -12.0609436 3.11722961 -13.07104492 3.11352539 C-14.10536148 3.11367142 -15.13967804 3.11381744 -16.20533752 3.1139679 C-19.63040246 3.1132702 -23.05541329 3.10548446 -26.48046875 3.09765625 C-28.85272695 3.09579156 -31.22498554 3.0943679 -33.59724426 3.09336853 C-39.84602926 3.08954736 -46.09479107 3.07972045 -52.34356689 3.06866455 C-58.7179737 3.05844186 -65.09238424 3.05386907 -71.46679688 3.04882812 C-83.97787448 3.03809786 -96.48893601 3.02121797 -109 3 C-109 2.34 -109 1.68 -109 1 C-95.52644017 0.86933304 -82.05287787 0.73892506 -68.57931232 0.60884857 C-62.32313731 0.54844205 -56.06696319 0.48794601 -49.81079102 0.42724609 C-43.77430101 0.3686809 -37.73780878 0.31034994 -31.70131493 0.25218201 C-29.39721788 0.22993833 -27.09312165 0.20760998 -24.78902626 0.18519592 C-21.56418694 0.15383935 -18.33934486 0.12278268 -15.11450195 0.09179688 C-14.16000153 0.08244614 -13.2055011 0.0730954 -12.22207642 0.0634613 C-10.8991584 0.05084007 -10.8991584 0.05084007 -9.54951477 0.03796387 C-8.78719197 0.03058952 -8.02486917 0.02321518 -7.23944569 0.01561737 C-4.82623073 -0.00121183 -2.41326584 -0.00258436 0 0 Z " fill="#222869" transform="translate(566,650)"/>
<path d="M0 0 C1.60031344 3.20062687 0.03173691 5.72271806 -1 9 C-0.01 8.67 0.98 8.34 2 8 C1.67 12.29 1.34 16.58 1 21 C1.33 21 1.66 21 2 21 C2.08636719 21.78503906 2.17273438 22.57007813 2.26171875 23.37890625 C3.19194481 30.33426621 4.39632038 34.6694236 9 40 C8.01 40.495 8.01 40.495 7 41 C6.34 41.99 5.68 42.98 5 44 C-3.69533053 33.98207874 -5.83802863 28.65408722 -5 15 C-4.00581436 9.67400553 -2.53953248 4.79198738 0 0 Z " fill="#42457F" transform="translate(374,430)"/>
<path d="M0 0 C1.20272819 2.40545638 1.10071472 3.94996953 1.0625 6.625 C1.05347656 7.44226563 1.04445313 8.25953125 1.03515625 9.1015625 C1.02355469 9.72804688 1.01195312 10.35453125 1 11 C1.99 8.36 2.98 5.72 4 3 C4.66 3 5.32 3 6 3 C6.10957031 3.61488281 6.21914063 4.22976563 6.33203125 4.86328125 C6.49058594 5.67152344 6.64914062 6.47976563 6.8125 7.3125 C7.03873047 8.51326172 7.03873047 8.51326172 7.26953125 9.73828125 C8.08533345 12.26421426 9.13876791 13.17956204 11 15 C11 15.99 11 16.98 11 18 C13.31 17.34 15.62 16.68 18 16 C18 16.99 18 17.98 18 19 C14.33569986 21.34515209 11.27824017 21.36881381 7 21 C1.6779024 18.99166128 1.6779024 18.99166128 -0.15625 16.30859375 C-1.2808847 13.23146825 -1.22775652 10.58059787 -1.1875 7.3125 C-1.18105469 6.15363281 -1.17460937 4.99476563 -1.16796875 3.80078125 C-1 1 -1 1 0 0 Z " fill="#303574" transform="translate(350,328)"/>
<path d="M0 0 C0.33 0.99 0.66 1.98 1 3 C2.32 2.67 3.64 2.34 5 2 C5 2.66 5 3.32 5 4 C5.66 4.33 6.32 4.66 7 5 C3.41945169 7.46240903 -0.16490801 9.91921199 -3.75 12.375 C-4.76578125 13.07367187 -5.7815625 13.77234375 -6.828125 14.4921875 C-7.8078125 15.1625 -8.7875 15.8328125 -9.796875 16.5234375 C-10.69760742 17.14138184 -11.59833984 17.75932617 -12.52636719 18.39599609 C-14.64097736 19.76719515 -16.72015113 20.93451961 -19 22 C-18.44387545 18.11863416 -16.72326862 16.37243082 -13.96484375 13.671875 C-12.75151367 12.47304688 -12.75151367 12.47304688 -11.51367188 11.25 C-10.66353516 10.425 -9.81339844 9.6 -8.9375 8.75 C-8.08349609 7.90953125 -7.22949219 7.0690625 -6.34960938 6.203125 C-4.23964588 4.12852403 -2.12300292 2.06124168 0 0 Z " fill="#333978" transform="translate(356,712)"/>
<path d="M0 0 C0.66 0.33 1.32 0.66 2 1 C-3.06291284 8.03182338 -8.80802457 15.53416424 -17 19 C-17 19.99 -17 20.98 -17 22 C-18.32 22.33 -19.64 22.66 -21 23 C-19.56926613 18.27424269 -16.79100323 15.40075814 -13.3125 12.0625 C-12.77592773 11.53688477 -12.23935547 11.01126953 -11.68652344 10.46972656 C-7.92490464 6.81240822 -4.06173639 3.32323887 0 0 Z " fill="#474F85" transform="translate(169,147)"/>
<path d="M0 0 C0.33 0 0.66 0 1 0 C1 12.21 1 24.42 1 37 C0.01 36.67 -0.98 36.34 -2 36 C-1.86015544 31.49979316 -1.71205005 26.99989394 -1.5625 22.5 C-1.52318359 21.2315625 -1.48386719 19.963125 -1.44335938 18.65625 C-1.23078638 12.37717086 -0.93384411 6.21516419 0 0 Z " fill="#66689B" transform="translate(402,345)"/>
<path d="M0 0 C2.49347279 2.49347279 2.25660595 3.28708317 2.265625 6.7265625 C2.26820313 7.67660156 2.27078125 8.62664063 2.2734375 9.60546875 C2.26570312 10.60191406 2.25796875 11.59835937 2.25 12.625 C2.25773438 13.59824219 2.26546875 14.57148437 2.2734375 15.57421875 C2.2545175 22.60300009 2.00495479 28.99256781 -2 35 C-2.33 33.02 -2.66 31.04 -3 29 C-2.34 29 -1.68 29 -1 29 C-0.67 19.43 -0.34 9.86 0 0 Z " fill="#6C6F9C" transform="translate(607,589)"/>
<path d="M0 0 C0 3 0 3 -1.28515625 4.62573242 C-2.16494141 5.4819519 -2.16494141 5.4819519 -3.0625 6.35546875 C-3.69414062 6.97744141 -4.32578125 7.59941406 -4.9765625 8.24023438 C-5.64429688 8.88283203 -6.31203125 9.52542969 -7 10.1875 C-8.00160156 11.16879883 -8.00160156 11.16879883 -9.0234375 12.16992188 C-10.67578441 13.78686135 -12.33471601 15.39640491 -14 17 C-14.99 16.34 -15.98 15.68 -17 15 C-14.73737364 12.67934614 -12.46356994 10.36996401 -10.1875 8.0625 C-9.54490234 7.40314453 -8.90230469 6.74378906 -8.24023438 6.06445312 C-7.61826172 5.43603516 -6.99628906 4.80761719 -6.35546875 4.16015625 C-5.49924927 3.28822632 -5.49924927 3.28822632 -4.62573242 2.39868164 C-3 1 -3 1 0 0 Z " fill="#2D3475" transform="translate(432,638)"/>
<path d="M0 0 C0.83789062 0.2784375 1.67578125 0.556875 2.5390625 0.84375 C3.44785156 1.16859375 3.44785156 1.16859375 4.375 1.5 C1.70626244 2.46074552 0.10910734 2.46137279 -2.74243164 2.04711914 C-6.91710767 1.45883712 -10.97554804 1.27719738 -15.18359375 1.18359375 C-15.97274673 1.16281265 -16.76189972 1.14203156 -17.57496643 1.12062073 C-20.07073109 1.05576695 -22.56659178 0.99654195 -25.0625 0.9375 C-26.76498348 0.89425358 -28.46745762 0.85063744 -30.16992188 0.80664062 C-34.32151873 0.70015237 -38.47321118 0.59870853 -42.625 0.5 C-42.625 0.17 -42.625 -0.16 -42.625 -0.5 C-38.33345211 -0.6698192 -34.04174622 -0.8352753 -29.75 -1 C-28.54601562 -1.04769531 -27.34203125 -1.09539063 -26.1015625 -1.14453125 C-5.61176684 -1.92403435 -5.61176684 -1.92403435 0 0 Z " fill="#24296A" transform="translate(566.625,549.5)"/>
<path d="M0 0 C0.66015625 1.76171875 0.66015625 1.76171875 1 4 C-0.00390625 5.89453125 -0.00390625 5.89453125 -1.5625 7.8125 C-2.11292969 8.49957031 -2.66335938 9.18664062 -3.23046875 9.89453125 C-3.81441406 10.58933594 -4.39835938 11.28414063 -5 12 C-5.57363281 12.68449219 -6.14726563 13.36898438 -6.73828125 14.07421875 C-8.1443346 15.72859656 -9.57027868 17.36603277 -11 19 C-12.32 18.67 -13.64 18.34 -15 18 C-14.5875 17.62230469 -14.175 17.24460937 -13.75 16.85546875 C-8.40465062 11.76068262 -4.21074616 6.04816267 0 0 Z " fill="#343A7B" transform="translate(676,466)"/>
<path d="M0 0 C0.66 0 1.32 0 2 0 C2.12117188 0.62648438 2.24234375 1.25296875 2.3671875 1.8984375 C2.53476562 2.71570313 2.70234375 3.53296875 2.875 4.375 C3.03742188 5.18710937 3.19984375 5.99921875 3.3671875 6.8359375 C3.86658932 9.18673923 3.86658932 9.18673923 6 11 C6 11.99 6 12.98 6 14 C3.625 13.6875 3.625 13.6875 1 13 C-1.11295256 9.83057116 -1.25250929 9.00370047 -1.1875 5.375 C-1.17783203 4.18003906 -1.17783203 4.18003906 -1.16796875 2.9609375 C-1 1 -1 1 0 0 Z " fill="#D5D6E6" transform="translate(354,331)"/>
<path d="M0 0 C2.1377072 5.668372 -1.01080528 11.62591328 -3 17 C-4.19934685 19.48753421 -5.49033122 21.68158009 -7 24 C-7.66 23.01 -8.32 22.02 -9 21 C-7.68 18.69 -6.36 16.38 -5 14 C-4.34 14 -3.68 14 -3 14 C-3.020625 12.9275 -3.04125 11.855 -3.0625 10.75 C-3.0142016 7.85209576 -2.86844115 5.71387859 -2 3 C-1.34 3 -0.68 3 0 3 C0 2.01 0 1.02 0 0 Z " fill="#3D3F7A" transform="translate(591,429)"/>
<path d="M0 0 C1.32 0.33 2.64 0.66 4 1 C4 2.98 4 4.96 4 7 C3.01 7.33 2.02 7.66 1 8 C1 8.66 1 9.32 1 10 C3.64 10 6.28 10 9 10 C9 10.66 9 11.32 9 12 C4.71 12 0.42 12 -4 12 C-4 11.01 -4 10.02 -4 9 C-3.01 8.67 -2.02 8.34 -1 8 C-0.67 7.34 -0.34 6.68 0 6 C0.66 6 1.32 6 2 6 C1.34 4.02 0.68 2.04 0 0 Z " fill="#24286A" transform="translate(394,466)"/>
<path d="M0 0 C0.33 0 0.66 0 1 0 C1 4.29 1 8.58 1 13 C0.67 13 0.34 13 0 13 C-0.33 11.02 -0.66 9.04 -1 7 C-2.72293135 11.46334184 -3.22240791 15.10201231 -3.125 19.875 C-3.10695313 21.02742188 -3.08890625 22.17984375 -3.0703125 23.3671875 C-3.04710937 24.23601562 -3.02390625 25.10484375 -3 26 C-6.2745227 21.08821596 -5.66825049 15.73527601 -5 10 C-3.69335823 6.41242607 -2.0375244 3.22365467 0 0 Z " fill="#B3B5CE" transform="translate(381,437)"/>
<path d="M0 0 C0 0.33 0 0.66 0 1 C-8.71782637 1.16311941 -17.31238511 0.65655389 -26 0 C-26 -0.33 -26 -0.66 -26 -1 C-17.19710055 -3.00796064 -8.65462819 -2.30790085 0 0 Z " fill="#232969" transform="translate(804,126)"/>
<path d="M0 0 C1.65253306 2.47879959 2.58244128 4.31730933 3.5625 7.0625 C4.30051803 9.11594912 5.02350686 11.04701371 6 13 C6.07116382 15.37402501 6.08409085 17.75000677 6.0625 20.125 C6.05347656 21.40632813 6.04445313 22.68765625 6.03515625 24.0078125 C6.02355469 24.99523437 6.01195312 25.98265625 6 27 C5.67 27 5.34 27 5 27 C4.87882813 26.14277344 4.75765625 25.28554688 4.6328125 24.40234375 C3.64476735 17.18859683 3.64476735 17.18859683 1.9375 10.125 C0.92828503 6.76095011 0.42630662 3.4815041 0 0 Z " fill="#6C6F9E" transform="translate(685,370)"/>
<path d="M0 0 C0.33 0.66 0.66 1.32 1 2 C1.99 2.33 2.98 2.66 4 3 C0.7 5.31 -2.6 7.62 -6 10 C-6.33 9.01 -6.66 8.02 -7 7 C-4.69 4.69 -2.38 2.38 0 0 Z " fill="#474D85" transform="translate(344,724)"/>
<path d="M0 0 C1.20272819 2.40545638 1.10071472 3.94996953 1.0625 6.625 C1.05347656 7.44226563 1.04445313 8.25953125 1.03515625 9.1015625 C1.02355469 9.72804688 1.01195312 10.35453125 1 11 C1.66 9.68 2.32 8.36 3 7 C3.33 9.64 3.66 12.28 4 15 C3.34 15 2.68 15 2 15 C2.33 15.99 2.66 16.98 3 18 C2.34 18 1.68 18 1 18 C-1.23157731 14.42771221 -1.23870158 11.46913776 -1.1875 7.3125 C-1.18105469 6.15363281 -1.17460937 4.99476563 -1.16796875 3.80078125 C-1 1 -1 1 0 0 Z " fill="#6C71A2" transform="translate(350,328)"/>
<path d="M0 0 C0.33 1.32 0.66 2.64 1 4 C-1.48538254 7.15452399 -4.44332692 9.17606509 -8 11 C-8.99 11 -9.98 11 -11 11 C-7.37 7.37 -3.74 3.74 0 0 Z " fill="#53588D" transform="translate(356,712)"/>
<path d="M0 0 C0.99 0 1.98 0 3 0 C1.55215477 3.37830553 -0.16332276 5.64961028 -3 8 C-5.75 8.75 -5.75 8.75 -8 9 C-7.04270084 7.87411986 -6.08412105 6.7493285 -5.125 5.625 C-4.59132813 4.99851562 -4.05765625 4.37203125 -3.5078125 3.7265625 C-2.38567993 2.44163349 -1.20628025 1.20628025 0 0 Z " fill="#414883" transform="translate(412,656)"/>
<path d="M0 0 C0.66 0 1.32 0 2 0 C1.67 4.95 1.34 9.9 1 15 C0.34 15 -0.32 15 -1 15 C-1.02693575 12.87506859 -1.04636628 10.75004088 -1.0625 8.625 C-1.07410156 7.44164062 -1.08570313 6.25828125 -1.09765625 5.0390625 C-1 2 -1 2 0 0 Z " fill="#2A2C6B" transform="translate(371,443)"/>
<path d="M0 0 C1.53069975 3.0613995 0.51513345 5.6802511 0 9 C0 10.32 0 11.64 0 13 C-0.99 13 -1.98 13 -3 13 C-3.33 13.66 -3.66 14.32 -4 15 C-3.63495936 9.33557626 -2.9445679 4.99296295 0 0 Z " fill="#6E729F" transform="translate(374,430)"/>
<path d="M0 0 C0 3.63327194 -0.95586411 5.04735927 -3 8 C-3.99 8.66 -4.98 9.32 -6 10 C-6.99 9.67 -7.98 9.34 -9 9 C-6.03 6.03 -3.06 3.06 0 0 Z " fill="#4A4F86" transform="translate(374,694)"/>
<path d="M0 0 C0 0.66 0 1.32 0 2 C-4.21348564 6.21348564 -6.87647862 7.63258872 -13 8 C-12.67 7.34 -12.34 6.68 -12 6 C-10.66666667 5.66666667 -9.33333333 5.33333333 -8 5 C-7.67 4.34 -7.34 3.68 -7 3 C-6.01 3 -5.02 3 -4 3 C-4 2.34 -4 1.68 -4 1 C-2 0 -2 0 0 0 Z " fill="#4C518A" transform="translate(660,709)"/>
<path d="M0 0 C0.33 0.99 0.66 1.98 1 3 C-0.21484375 4.82421875 -0.21484375 4.82421875 -1.9375 6.6875 C-2.50339844 7.31011719 -3.06929688 7.93273437 -3.65234375 8.57421875 C-4.09707031 9.04472656 -4.54179687 9.51523437 -5 10 C-5.99 9.34 -6.98 8.68 -8 8 C-5.36 5.36 -2.72 2.72 0 0 Z " fill="#3A417F" transform="translate(423,645)"/>
<path d="M0 0 C0.90995768 2.92931581 1.13461162 3.68590623 -0.125 6.625 C-2.24148827 9.30588515 -3.76849539 10.03928241 -7 11 C-5.22054913 6.95579349 -2.60470327 3.53921513 0 0 Z " fill="#4E538C" transform="translate(676,466)"/>
<path d="M0 0 C4.34464536 0.60825035 8.67551867 1.26167392 13 2 C9.64672361 4.23551759 9.09256343 4.17283528 5.3125 3.625 C4.50425781 3.51414063 3.69601562 3.40328125 2.86328125 3.2890625 C2.24839844 3.19367188 1.63351562 3.09828125 1 3 C0.67 2.01 0.34 1.02 0 0 Z " fill="#404582" transform="translate(802,125)"/>
<path d="M0 0 C1.67588141 2.51382212 2.94030311 4.82947288 4.1875 7.5625 C4.55230469 8.34753906 4.91710937 9.13257813 5.29296875 9.94140625 C5.52628906 10.62074219 5.75960938 11.30007813 6 12 C5.67 12.66 5.34 13.32 5 14 C4.67 13.01 4.34 12.02 4 11 C3.34 11 2.68 11 2 11 C0.19769832 7.17010894 -0.19622241 4.21878192 0 0 Z " fill="#4E5187" transform="translate(413,417)"/>
<path d="M0 0 C-1.55603771 3.81936528 -3.95604931 6.26044438 -7 9 C-7.66 9 -8.32 9 -9 9 C-7.45665977 5.21180126 -4.44676575 0 0 0 Z " fill="#D4D6E4" transform="translate(458,291)"/>
<path d="M0 0 C0.33 1.32 0.66 2.64 1 4 C1.66 4 2.32 4 3 4 C3.33 7.3 3.66 10.6 4 14 C1.8244694 11.8244694 1.28120447 10.44026108 0.3125 7.5625 C-0.09548828 6.38880859 -0.09548828 6.38880859 -0.51171875 5.19140625 C-1 3 -1 3 0 0 Z " fill="#5D608F" transform="translate(896,211)"/>
<path d="M0 0 C0.33 0.99 0.66 1.98 1 3 C2.98 3 4.96 3 7 3 C7.66 4.32 8.32 5.64 9 7 C7.55903414 6.57405412 6.12231288 6.13373367 4.6875 5.6875 C3.88699219 5.44386719 3.08648437 5.20023438 2.26171875 4.94921875 C-0.09964573 3.95817977 -1.33879993 2.91925057 -3 1 C-2.01 0.67 -1.02 0.34 0 0 Z " fill="#575C8F" transform="translate(184,883)"/>
<path d="M0 0 C0.99 0 1.98 0 3 0 C2.40072174 3.35595828 1.15377564 5.37801226 -1 8 C-1.625 5.6875 -1.625 5.6875 -2 3 C-1.34 2.01 -0.68 1.02 0 0 Z " fill="#41487F" transform="translate(137,185)"/>
<path d="M0 0 C3.33773709 3.64116773 3.97864902 7.28607242 5 12 C4.01 12 3.02 12 2 12 C1.855625 10.948125 1.71125 9.89625 1.5625 8.8125 C1.12473034 5.84539451 0.62195134 2.93205634 0 0 Z " fill="#4C4E88" transform="translate(408,405)"/>
<path d="M0 0 C3.77545388 1.09068668 6.47043472 1.9083091 9 5 C2.25 4.125 2.25 4.125 0 3 C0 2.01 0 1.02 0 0 Z " fill="#474B85" transform="translate(840,139)"/>
<path d="M0 0 C-1.13499394 3.29148243 -1.99283376 3.9959869 -5.125 5.75 C-6.548125 6.36875 -6.548125 6.36875 -8 7 C-7.8125 5.1875 -7.8125 5.1875 -7 3 C-2.82142857 0 -2.82142857 0 0 0 Z " fill="#373A78" transform="translate(847,879)"/>
<path d="M0 0 C0.99 0.33 1.98 0.66 3 1 C3.1953125 7.0546875 3.1953125 7.0546875 3 9 C2.34 9.66 1.68 10.32 1 11 C-0.20272819 8.59454362 -0.10071472 7.05003047 -0.0625 4.375 C-0.05347656 3.55773437 -0.04445313 2.74046875 -0.03515625 1.8984375 C-0.02355469 1.27195312 -0.01195313 0.64546875 0 0 Z " fill="#3D447C" transform="translate(124,792)"/>
<path d="M0 0 C4.31392226 0.4793247 6.16569547 1.7457985 9 5 C5 5 5 5 2.25 2.5 C1.5075 1.675 0.765 0.85 0 0 Z " fill="#3E4381" transform="translate(669,522)"/>
<path d="M0 0 C0.99 0.33 1.98 0.66 3 1 C3.33 1.99 3.66 2.98 4 4 C6.00016466 5.20882096 6.00016466 5.20882096 8 6 C7.01 6.495 7.01 6.495 6 7 C4.0546875 6.22265625 4.0546875 6.22265625 1.875 5.0625 C1.15054688 4.68222656 0.42609375 4.30195313 -0.3203125 3.91015625 C-0.87460937 3.60980469 -1.42890625 3.30945313 -2 3 C-2 2.34 -2 1.68 -2 1 C-1.34 0.67 -0.68 0.34 0 0 Z " fill="#494E87" transform="translate(636,501)"/>
<path d="M0 0 C-0.33 0.99 -0.66 1.98 -1 3 C-4.96 3 -8.92 3 -13 3 C-8.54370064 0.02913376 -5.32064558 -0.12092376 0 0 Z " fill="#6D71A0" transform="translate(217,126)"/>
<path d="M0 0 C0.33 0 0.66 0 1 0 C1.33 4.62 1.66 9.24 2 14 C1.01 14.33 0.02 14.66 -1 15 C-0.67 10.05 -0.34 5.1 0 0 Z " fill="#5B5F94" transform="translate(690,420)"/>
<path d="M0 0 C2.76276177 0.52268466 5.3260876 1.10869587 8 2 C8.33 1.34 8.66 0.68 9 0 C9 0.99 9 1.98 9 3 C7.02 3 5.04 3 3 3 C3.33 3.66 3.66 4.32 4 5 C3.01 4.67 2.02 4.34 1 4 C0.3125 1.9375 0.3125 1.9375 0 0 Z " fill="#464C87" transform="translate(352,343)"/>
<path d="M0 0 C1.33597652 0.80814651 2.668725 1.62163181 4 2.4375 C5.11375 3.11619141 5.11375 3.11619141 6.25 3.80859375 C6.8275 4.20175781 7.405 4.59492188 8 5 C8 5.33 8 5.66 8 6 C5.6875 6.25 5.6875 6.25 3 6 C1.02389614 3.95575462 0 2.8823175 0 0 Z " fill="#414680" transform="translate(644,312)"/>
<path d="M0 0 C0.33 0.99 0.66 1.98 1 3 C-1.97 5.475 -1.97 5.475 -5 8 C-5.66 7.67 -6.32 7.34 -7 7 C-4.69 4.69 -2.38 2.38 0 0 Z " fill="#CBCDDB" transform="translate(866,865)"/>
<path d="M0 0 C0.66 0.99 1.32 1.98 2 3 C1.3125 5.625 1.3125 5.625 0 8 C-0.99 8.33 -1.98 8.66 -3 9 C-2.01 6.03 -1.02 3.06 0 0 Z " fill="#484E88" transform="translate(700,658)"/>
<path d="M0 0 C-3.53411321 2.12046792 -6.94393835 2.53199289 -11 3 C-10.01 2.67 -9.02 2.34 -8 2 C-8 1.34 -8 0.68 -8 0 C-5.13822943 -1.43088528 -3.06624227 -0.59991697 0 0 Z " fill="#353A78" transform="translate(574,650)"/>
<path d="M0 0 C0.33 0.99 0.66 1.98 1 3 C1.99 3.33 2.98 3.66 4 4 C4 5.65 4 7.3 4 9 C3.34 9 2.68 9 2 9 C0.50178941 5.62902617 0 3.79557881 0 0 Z " fill="#53568D" transform="translate(385,326)"/>
<path d="M0 0 C-1.28519565 2.86697492 -2.57129254 4.97607712 -5 7 C-5.66 7 -6.32 7 -7 7 C-3.86206897 0 -3.86206897 0 0 0 Z " fill="#CED0DE" transform="translate(417,310)"/>
<path d="M0 0 C1.43655854 -0.08131463 2.8744483 -0.13933559 4.3125 -0.1875 C5.51326172 -0.23970703 5.51326172 -0.23970703 6.73828125 -0.29296875 C9.47851584 0.06198392 10.29171079 0.89366282 12 3 C3.96428571 2.19642857 3.96428571 2.19642857 0 0 Z " fill="#777EA7" transform="translate(587,292)"/>
<path d="M0 0 C2.3125 0.1875 2.3125 0.1875 5 1 C6.8125 3.5625 6.8125 3.5625 8 6 C4.08597051 4.73058503 2.20927127 3.48832306 0 0 Z " fill="#52598F" transform="translate(173,878)"/>
<path d="M0 0 C2.3125 0.125 2.3125 0.125 5 1 C6.8125 4.0625 6.8125 4.0625 8 7 C4.2047869 5.50902342 2.38957269 3.24299151 0 0 Z " fill="#51568C" transform="translate(158,866)"/>
<path d="M0 0 C0.625 1.875 0.625 1.875 1 4 C0.34 4.66 -0.32 5.32 -1 6 C-3.125 5.625 -3.125 5.625 -5 5 C-3.35 3.35 -1.7 1.7 0 0 Z " fill="#4A5187" transform="translate(390,678)"/>
<path d="M0 0 C0.33 0 0.66 0 1 0 C1.19622241 4.21878192 0.80230168 7.17010894 -1 11 C-1.33 11 -1.66 11 -2 11 C-2.33 9.02 -2.66 7.04 -3 5 C-2.34 5 -1.68 5 -1 5 C-0.67 3.35 -0.34 1.7 0 0 Z " fill="#6D719C" transform="translate(607,613)"/>
<path d="M0 0 C1.875 0.1875 1.875 0.1875 4 1 C5.25 3.5625 5.25 3.5625 6 6 C4.125 5.8125 4.125 5.8125 2 5 C0.75 2.4375 0.75 2.4375 0 0 Z " fill="#444781" transform="translate(596,567)"/>
<path d="M0 0 C1.875 1.25 1.875 1.25 2.875 4.25 C0.52328869 3.65138258 -1.8109378 2.98075648 -4.125 2.25 C-4.455 1.59 -4.785 0.93 -5.125 0.25 C-2.125 -0.75 -2.125 -0.75 0 0 Z " fill="#474C87" transform="translate(654.125,509.75)"/>
<path d="M0 0 C3.0109362 2.0072908 3.63016497 2.83884224 5 6 C4.01 7.485 4.01 7.485 3 9 C2.01 6.03 1.02 3.06 0 0 Z " fill="#4D5288" transform="translate(681,359)"/>
<path d="M0 0 C0.66 0 1.32 0 2 0 C0.60667426 3.36720387 -0.9789286 4.9859524 -4 7 C-4 6.01 -4 5.02 -4 4 C-2.68 3.34 -1.36 2.68 0 2 C0 1.34 0 0.68 0 0 Z " fill="#353676" transform="translate(863,865)"/>
<path d="M0 0 C4 1 4 1 6 3 C5.67 4.32 5.34 5.64 5 7 C3.35 4.69 1.7 2.38 0 0 Z " fill="#383D7B" transform="translate(146,852)"/>
<path d="M0 0 C1.32 0.66 2.64 1.32 4 2 C0.04 3.98 0.04 3.98 -4 6 C-3 2 -3 2 0 0 Z " fill="#464985" transform="translate(414,679)"/>
<path d="M0 0 C1.99097846 2.98646769 2.94124926 5.59687262 4 9 C3.01 8.67 2.02 8.34 1 8 C-0.35439668 5.29120665 -0.06501451 2.99066732 0 0 Z " fill="#393B79" transform="translate(446,328)"/>
<path d="M0 0 C0.66 0 1.32 0 2 0 C1.34 3.63 0.68 7.26 0 11 C-1.04973814 6.80104745 -0.72795155 4.20594226 0 0 Z " fill="#43447C" transform="translate(407,316)"/>
<path d="M0 0 C0.66 0.33 1.32 0.66 2 1 C1.2884375 1.928125 1.2884375 1.928125 0.5625 2.875 C-1.02417441 4.90705546 -1.02417441 4.90705546 -2 7 C-2.99 7 -3.98 7 -5 7 C-3.70700306 4.11562221 -2.34058637 2.12780579 0 0 Z " fill="#535C91" transform="translate(169,147)"/>
</svg>
